<svg width="1024" height="1024" viewBox="0 0 1024 1024" fill="none" xmlns="http://www.w3.org/2000/svg">
<path d="M264 192C241.84 192 224 209.84 224 232V792C224 814.16 241.84 832 264 832C286.16 832 304 814.16 304 792V232C304 209.84 286.16 192 264 192ZM424 192C413.391 192 403.217 196.214 395.716 203.716C388.214 211.217 384 221.391 384 232V792C384 802.609 388.214 812.783 395.716 820.284C403.217 827.786 413.391 832 424 832H504C526.091 832 561.984 831.655 583.844 828.562C664.82 817.107 842.634 767.438 862.203 551.922C864.198 529.95 864.202 494.071 862.203 472.078C842.612 256.559 664.718 206.881 583.766 195.438C561.928 192.35 526.091 192 504 192H424Z" fill="black"/>
</svg>
