<svg width="1024" height="1024" viewBox="0 0 1024 1024" fill="none" xmlns="http://www.w3.org/2000/svg">
<path d="M504 352C481.84 352 464 369.84 464 392C464 414.16 481.84 432 504 432H704C726.16 432 744 414.16 744 392C744 369.84 726.16 352 704 352H504ZM504 472C481.84 472 464 489.84 464 512C464 534.16 481.84 552 504 552H624C646.16 552 664 534.16 664 512C664 489.84 646.16 472 624 472H504ZM504 592C481.84 592 464 609.84 464 632C464 654.16 481.84 672 504 672H664C686.16 672 704 654.16 704 632C704 609.84 686.16 592 664 592H504Z" fill="white"/>
</svg>
